<svg width="130" height="22" viewBox="0 0 130 22" fill="none" xmlns="http://www.w3.org/2000/svg">
<path d="M129.879 11.1464L126.071 11.0979V13.6812C126.071 17.0043 125.489 19.442 125.21 20.1697C125.028 20.3759 124.604 20.4971 124.349 20.4244C124.191 19.8422 123.864 18.0351 123.864 15.0274V3.4087C123.864 2.92358 122.493 1.91695 121.984 1.75929C121.851 1.71077 122.287 1.20139 122.421 1.20139C123.464 1.20139 126.205 1.83205 126.144 2.31718C126.095 2.64463 126.071 3.03273 126.071 3.45721V10.1034L128.958 8.96335C129.212 8.86633 130.352 11.1464 129.891 11.1464M121.972 12.4077C122.372 12.9656 121.293 15.3306 120.905 14.7727C120.347 13.9844 118.819 11.6558 117.448 10.1034C115.617 12.6624 113.337 14.7242 111.287 15.8157C111.032 15.7914 110.729 15.4155 110.729 15.185C113.264 12.9292 116.126 8.97548 117.327 5.37345C117.4 5.16727 116.538 4.53661 116.163 4.30618C116.041 4.23341 116.563 3.84531 116.696 3.84531C117.387 3.84531 119.304 4.63363 119.765 4.96109C120.019 5.14301 120.043 5.26429 119.922 5.56749C119.413 6.88945 118.734 8.15077 117.97 9.31506C119.692 10.5036 121.596 11.8741 121.972 12.4077ZM109.662 11.3647L105.829 11.2919V13.6812C105.829 17.0043 105.296 19.442 104.993 20.1697C104.811 20.3759 104.386 20.4971 104.156 20.4244C103.974 19.8422 103.671 18.0351 103.671 15.0274V3.4087C103.671 2.92358 102.3 1.96546 101.791 1.75929C101.669 1.71077 102.094 1.20139 102.227 1.20139C103.27 1.20139 105.951 1.83205 105.902 2.31718C105.878 2.64463 105.829 3.03273 105.829 3.45721V10.3096L108.728 9.19378C109.007 9.0725 110.147 11.3526 109.662 11.3526M97.2064 12.5047C98.2736 12.5047 99.062 11.7649 99.062 10.6249C99.062 9.48486 98.3221 8.72079 97.2064 8.72079C96.0906 8.72079 95.3508 9.48486 95.3508 10.6249C95.3508 11.7649 96.0906 12.5047 97.2064 12.5047ZM93.5801 2.81443C93.5558 2.7174 93.6771 2.40207 93.8105 2.4142C94.5746 2.55974 95.3508 2.69315 96.321 2.81443L98.686 3.06912C98.8922 3.09337 99.8018 4.34256 99.1954 4.34256H95.6176C95.0112 4.34256 93.6165 3.0206 93.5679 2.81443M91.203 5.64026C91.1787 5.56749 91.3243 5.31281 91.3849 5.33706C91.7851 5.4826 93.2041 5.51898 94.5503 5.49473L99.3894 5.44621C100.784 5.42196 101.196 4.73066 101.415 4.73066C101.645 4.73066 102.531 5.95559 102.531 6.52561C102.531 6.62264 102.434 6.68328 102.276 6.68328C102.045 6.68328 100.699 6.61051 99.632 6.61051L94.429 6.63476C93.5922 6.63476 93.0343 6.81668 92.7796 7.04712C92.1247 6.8652 91.3121 5.88282 91.2272 5.62814M102.761 15.1487C100.675 16.1068 96.6727 16.6647 93.9318 17.0043C93.192 17.1013 92.7432 17.2347 92.3066 17.4894C91.6032 17.3075 90.5844 16.2766 90.4874 15.8885C90.5117 15.7672 90.6087 15.658 90.6693 15.5853C91.4334 15.5853 92.5492 15.6095 93.8954 15.5368C94.7322 15.4882 95.5206 15.4397 96.2361 15.3791L96.1027 13.378C94.332 13.0748 93.2405 12.0317 93.2405 10.5885C93.2405 9.01186 94.611 7.94459 96.7698 7.82331C96.794 7.72629 96.8183 7.66565 96.8183 7.56862C96.8183 7.3867 96.7698 7.1684 96.5151 6.98648C96.5151 6.54987 97.9098 6.98648 97.9098 7.21691C97.9098 7.31393 97.7885 7.59288 97.7279 7.82331C99.8382 7.96885 101.172 9.03612 101.172 10.5885C101.172 12.0317 100.032 13.0748 98.2858 13.378L98.1887 15.185C100.396 14.9304 101.888 14.5786 102.882 14.2512C103.088 14.1784 103.004 15.0152 102.749 15.1365M76.334 3.83318L76.3097 7.71416H81.7188L81.8523 3.83318H76.3218H76.334ZM72.829 2.97209C72.8047 2.85081 73.1322 2.46271 73.2898 2.46271C73.6901 2.46271 75.0727 2.51122 75.9823 2.66889H81.1367C81.7916 2.66889 82.1312 2.57187 82.3859 2.34143C82.6648 2.24441 84.4719 2.52335 84.4355 2.82655L83.6715 7.49586C83.9989 7.79906 84.4355 8.40546 84.4355 8.73292C84.4355 8.82994 84.3385 8.89058 84.1808 8.89058C83.9504 8.89058 83.0893 8.86633 81.7916 8.86633H76.0793C75.9338 9.12101 75.7518 9.35145 75.5457 9.59401C75.3395 9.80019 74.9635 9.89721 74.6846 9.82444C74.4541 9.26655 74.2601 8.19928 74.1024 6.27092L73.8962 3.85744C73.872 3.62701 73.2171 3.11763 72.829 2.97209ZM85.6968 19.4662C85.6968 19.5633 85.6241 19.6239 85.4422 19.6239H83.0529L75.9459 19.6482C73.969 19.6482 73.5809 18.969 73.5809 17.647V15.6702C73.5809 15.3185 72.8411 14.712 72.4166 14.6514C72.2832 14.6272 72.7441 14.045 72.926 14.045C73.7386 14.045 74.9514 14.2269 75.5578 14.4574C75.6791 14.5059 75.861 14.5786 75.8125 14.8333C75.764 15.1365 75.764 15.5731 75.764 15.9491V17.6713C75.764 18.3868 76.0186 18.4839 76.6493 18.4839L82.6163 18.4596C83.8776 18.4596 84.29 17.7562 84.4477 17.7562C84.7751 17.7562 85.6968 18.9205 85.6968 19.4541M87.9527 11.9469C87.9527 12.0681 87.8556 12.1288 87.698 12.1288H80.3362V13.475C80.3362 14.8455 79.8269 16.034 79.4751 16.5676C79.2932 16.7738 78.893 16.8708 78.6383 16.7981C78.4321 16.1674 78.1289 15.3306 78.1289 13.8024V12.1288H73.1807C72.3438 12.1288 71.786 12.3592 71.5313 12.5896C70.8764 12.4077 69.5544 11.3768 69.5544 11.1464C69.5544 11.0494 69.6757 10.7947 69.7363 10.8189C70.1365 10.9645 71.5555 10.9766 72.9017 10.9766L84.29 10.9524C85.7332 10.9524 86.2184 10.1398 86.4003 10.1398C86.655 10.1398 87.9527 11.3768 87.9527 11.9347M55.5101 6.06474C55.5101 7.5565 56.4804 8.551 57.9478 8.551C59.4153 8.551 60.5311 7.5565 60.5311 6.06474C60.5311 4.57299 59.4881 3.57849 57.9721 3.57849C56.4561 3.57849 55.5101 4.58512 55.5101 6.06474ZM53.3028 6.13751C53.3028 4.05149 54.9765 2.65676 57.5597 2.51122C57.584 2.43846 57.6083 2.37782 57.6083 2.30505C57.6083 2.09887 57.5597 1.86844 57.2565 1.65013C57.2565 1.18927 58.8089 1.65013 58.8089 1.90482C58.8089 2.00185 58.6877 2.28079 58.627 2.51122C61.089 2.69315 62.7142 4.08787 62.7142 6.13751C62.7142 8.29631 60.8343 9.71529 58.0206 9.71529C55.2069 9.71529 53.3028 8.29631 53.3028 6.13751ZM67.2016 12.4805C67.2016 12.5775 67.1045 12.6382 66.9469 12.6382H61.9016V13.7539C61.9016 16.8951 61.3437 19.3328 61.0405 20.0484C60.8586 20.2546 60.4341 20.3516 60.2037 20.3031C60.0217 19.7209 59.6943 17.9139 59.6943 15.1001V12.6382L56.1408 12.6624V13.3658C56.1408 16.4827 55.5829 18.9205 55.3039 19.636C55.122 19.8422 54.6975 19.9392 54.4428 19.8907C54.2852 19.3086 53.9577 17.5015 53.9577 14.712V12.6624H52.4296C51.5927 12.6624 51.0349 12.8928 50.7802 13.1233C50.1253 12.9414 48.8033 11.9105 48.8033 11.6558C48.8033 11.583 48.9246 11.3283 48.9852 11.3526C49.3854 11.486 50.8044 11.5102 52.1506 11.5102L63.5389 11.4617C64.9821 11.4617 65.4672 10.6491 65.6492 10.6491C65.9038 10.6491 67.2016 11.8983 67.2016 12.4562M34.9409 5.13088C34.9409 6.40433 35.899 7.31393 37.3302 7.31393C38.7613 7.31393 39.7194 6.40433 39.7194 5.13088C39.7194 3.85744 38.7613 2.99635 37.3302 2.99635C35.899 2.99635 34.9409 3.88169 34.9409 5.13088ZM32.7336 5.22791C32.7336 3.39657 34.3345 2.06249 36.8208 1.90482C36.845 1.78354 36.8935 1.69865 36.8935 1.57736C36.8935 1.37119 36.8208 1.15288 36.5418 0.946706C36.5418 0.461584 38.0942 0.946706 38.0942 1.17714C38.0942 1.32268 37.9366 1.638 37.8395 1.89269C40.3015 2.05036 41.9509 3.38444 41.9509 5.21578C41.9509 7.14414 40.0711 8.51461 37.3302 8.51461C34.5892 8.51461 32.7336 7.14414 32.7336 5.21578M43.7459 19.8422C43.7459 19.9635 43.6489 19.9999 43.4912 19.9999H34.4558C32.9034 19.9999 32.3577 19.4662 32.3213 18.2534L32.2728 16.701C32.2728 16.4706 31.6664 16.1674 31.2783 15.9976C31.254 15.8763 31.6057 15.4882 31.7876 15.4882C32.2242 15.4882 33.8858 15.5853 34.4801 15.7914H40.3622L40.3864 13.9116H34.5043C33.7888 13.9116 33.3158 14.0935 33.0611 14.3361C32.2242 14.2148 31.5451 13.1233 31.5329 12.9656C31.5087 12.8443 31.63 12.6139 31.7391 12.6382C32.4789 12.7716 33.4128 12.7716 34.759 12.7716H39.5738C40.2288 12.7716 40.5683 12.6988 40.823 12.4441C41.102 12.4198 42.9576 12.626 42.8969 12.9292L42.3148 15.6702C42.7514 15.9976 43.0303 16.5555 43.0303 16.6889C43.0303 16.8102 42.9576 16.8951 42.8484 16.8951C42.6422 16.8951 41.3203 16.8708 40.2409 16.8708H34.4801V17.8896C34.4801 18.6779 34.7105 18.8356 35.7535 18.8356H40.8473C42.2905 18.8356 42.4967 18.2292 42.6544 18.2292C42.9818 18.2292 43.7459 19.3207 43.7459 19.8058M46.4019 10.8553C46.4019 10.9524 46.3049 11.013 46.1472 11.013H42.8727L31.6421 11.0372C30.8295 11.0372 30.2716 11.2677 30.0169 11.4739C29.3378 11.2919 28.1371 10.2853 28.0401 10.0306C28.0158 9.95785 28.1613 9.70316 28.222 9.72742C28.6222 9.87295 30.0291 9.89721 31.3874 9.89721L42.7514 9.8487C44.1704 9.8487 44.6555 9.03612 44.8617 9.03612C45.1164 9.03612 46.3898 10.2853 46.3898 10.8432M20.739 10.8068C20.739 11.013 20.5813 11.013 20.0234 11.1828C19.793 11.2556 19.6717 11.6194 19.4898 12.2015C19.0896 13.4265 17.8161 15.4033 15.1722 15.4033C12.5283 15.4033 11.1336 13.1475 11.0365 13.0262C10.9031 12.8443 10.6848 12.6745 10.5029 12.6745C10.3816 12.6745 10.2967 12.723 10.224 12.7716C9.26583 13.4265 8.22282 14.1663 8.22282 15.8642C8.22282 16.98 9.15668 18.2534 10.7333 18.2534C12.0795 18.2534 12.9649 16.98 13.2438 16.0946C13.3409 15.7914 13.3166 15.6702 13.4743 15.6702C13.6804 15.6702 13.7532 16.131 14.0322 16.131C14.2626 16.131 14.1898 16.0098 14.493 16.0098C14.772 16.0098 14.8447 16.3857 15.0752 16.3857C15.4026 16.3857 15.8392 16.1068 16.0575 16.1068C16.1303 16.1068 16.2395 16.1068 16.2395 16.1795C16.2395 16.3008 16.0333 16.41 15.8392 16.5798C15.439 16.9315 15.1479 17.1377 14.8447 17.647C13.7775 19.4541 12.5404 19.7816 11.9098 19.9756C11.6793 20.0484 11.4489 20.1575 11.3519 20.3759C11.0001 21.1642 10.794 21.2612 10.6969 21.2612C10.5757 21.2612 10.5393 21.1278 10.515 20.8246C10.4908 20.4971 10.3088 20.1212 9.67819 20.012C8.07728 19.7088 6.10041 18.0836 6.10041 15.5246C6.10041 13.2203 7.84685 12.3228 8.7322 11.4375C8.85348 11.3162 8.93838 11.1828 8.93838 10.9766V10.9038C8.93838 10.7947 8.91412 10.6492 8.76858 10.4672C7.88324 9.35145 7.21619 8.61164 6.00339 8.61164C4.68143 8.61164 3.51714 9.70316 3.51714 11.2798C3.51714 12.9777 4.35397 13.5599 5.19081 13.7661C5.46975 13.8388 5.56678 13.8631 5.56678 13.948C5.56678 14.1299 5.38486 14.0935 5.38486 14.3725C5.38486 14.5786 5.54252 14.5544 5.54252 14.8818C5.54252 15.1123 5.33634 15.185 5.33634 15.5368C5.33634 15.8157 5.46975 15.9127 5.46975 16.0704C5.46975 16.2766 5.59103 16.2523 5.59103 16.701C5.59103 16.8223 5.63955 16.9072 5.54252 16.9072C5.4455 16.9072 5.33634 16.7496 5.19081 16.5313C4.86335 16.0461 4.51164 15.7429 4.25695 15.5489C2.23156 14.0814 2.15879 13.4386 1.64942 12.432C1.52813 12.2015 1.49175 11.8013 1.24919 11.6922C0.509378 11.3162 0 11.207 0 10.6006C0 10.3217 0.327458 10.6006 0.836836 10.6006C1.11578 10.6006 1.44324 10.6491 1.6009 10.067C1.95262 8.82994 3.40798 6.85307 5.967 6.85307C8.68369 6.85307 10.0299 9.10889 10.1269 9.23017C10.3088 9.48486 10.4786 9.58188 10.6606 9.58188C10.7818 9.58188 10.8667 9.58188 11.0729 9.39996C12.7951 7.87182 12.9285 7.19265 12.9285 6.30731C12.9285 5.19153 12.0432 3.89382 10.4665 3.89382C8.88986 3.89382 8.13793 5.14301 7.93175 6.07687C7.85898 6.38007 7.81047 6.53774 7.67706 6.53774C7.47088 6.53774 7.47088 6.25879 7.24045 6.25879C6.86448 6.25879 6.8281 6.41646 6.63405 6.41646C6.37936 6.41646 6.37936 5.95559 6.00339 5.95559C5.90636 5.95559 5.70019 6.07687 5.56678 6.07687C5.21506 6.07687 5.19081 6.14964 5.03314 6.14964C4.85122 6.14964 4.65717 6.05262 4.65717 5.91921C4.65717 5.7858 4.77845 5.68878 5.1423 5.50685C5.62742 5.25217 6.07616 5.07024 6.30659 4.54874C7.02214 2.94783 8.61092 2.43846 9.21732 2.20802C9.44776 2.111 9.56904 2.0261 9.67819 1.8078C10.1633 0.92245 10.3816 0.825425 10.515 0.825425C10.6484 0.825425 10.6363 1.05586 10.6969 1.3348C10.7697 1.66226 10.7697 1.91695 11.3033 2.05036C12.8194 2.45058 15.0388 3.84531 15.0388 6.3922C15.0388 8.93909 12.5283 10.5521 12.407 10.6491C12.1281 10.8553 12.031 11.0251 12.031 11.1828C12.031 11.3041 12.1038 11.4375 12.1766 11.583C12.783 12.7958 13.826 13.5841 15.0388 13.5841C16.482 13.5841 17.5978 12.2379 17.5978 10.8432C17.5978 9.44847 16.6639 8.61164 15.8514 8.35695C15.5482 8.25992 15.4148 8.25992 15.4148 8.10226C15.4148 7.92034 15.6209 7.98098 15.6209 7.70203C15.6209 7.49586 15.5239 7.54437 15.5239 7.21691C15.5239 6.98648 15.8029 6.91371 15.8029 6.562C15.8029 6.28305 15.6694 6.18603 15.6694 6.02836C15.6694 5.82218 15.5967 5.84644 15.5967 5.3977C15.5967 5.27642 15.5482 5.19153 15.6452 5.19153C15.7665 5.19153 15.8756 5.34919 16.0212 5.56749C16.3486 6.05262 16.6033 6.42859 16.858 6.58625C18.6893 7.75054 19.0896 8.49036 19.514 9.53337C19.6111 9.7638 19.696 10.164 19.9749 10.3217C20.2053 10.4672 20.7147 10.6249 20.7147 10.8068" fill="white"/>
</svg>
